<svg width="20" height="20" viewBox="0 0 20 20" fill="none" xmlns="http://www.w3.org/2000/svg">
<path d="M14.1673 5.83341V9.16675C14.1673 11.4679 12.3018 13.3334 10.0007 13.3334C7.69947 13.3334 5.83398 11.4679 5.83398 9.16675V5.83341C5.83398 3.53223 7.69947 1.66675 10.0007 1.66675C12.3018 1.66675 14.1673 3.53223 14.1673 5.83341Z" stroke="#ABABAB" stroke-width="1.25"/>
<path d="M14.166 5.83325H11.666M14.166 9.16659H11.666" stroke="#ABABAB" stroke-width="1.25" stroke-linecap="round"/>
<path d="M16.6673 9.16675C16.6673 12.8487 13.6826 15.8334 10.0007 15.8334M10.0007 15.8334C6.31875 15.8334 3.33398 12.8487 3.33398 9.16675M10.0007 15.8334V18.3334M10.0007 18.3334H12.5007M10.0007 18.3334H7.50065" stroke="#ABABAB" stroke-width="1.25" stroke-linecap="round"/>
</svg>
