<svg width="44" height="45" viewBox="0 0 44 45" fill="none" xmlns="http://www.w3.org/2000/svg">
<path d="M21.0833 40.8333C13.7373 40.8333 10.0642 40.8333 7.78213 38.1484C5.5 35.4636 5.5 31.1423 5.5 22.5C5.5 13.8576 5.5 9.53633 7.78213 6.85149C10.0642 4.16663 13.7373 4.16663 21.0833 4.16663C28.4293 4.16663 32.1024 4.16663 34.3845 6.85149C36.2215 9.01271 36.58 12.2343 36.6498 17.9166" stroke="#AEB9E1" stroke-width="3" stroke-linecap="round" stroke-linejoin="round"/>
<path d="M14.6667 15.1666H27.5001M14.6667 24.3333H20.1667" stroke="#AEB9E1" stroke-width="3" stroke-linecap="round" stroke-linejoin="round"/>
<path d="M35.9503 33.6932C37.4956 32.5683 38.5001 30.7452 38.5001 28.6875C38.5001 25.2702 35.7299 22.5 32.3126 22.5H31.8542C28.4369 22.5 25.6667 25.2702 25.6667 28.6875C25.6667 30.7452 26.6712 32.5683 28.2165 33.6932M35.9503 33.6932C34.9293 34.4365 33.6722 34.875 32.3126 34.875H31.8542C30.4946 34.875 29.2375 34.4365 28.2165 33.6932M35.9503 33.6932L37.0187 37.0574C37.4263 38.3405 37.6302 38.9822 37.5744 39.3817C37.4584 40.2131 36.7802 40.8304 35.9796 40.8333C35.595 40.8348 35.0186 40.5323 33.866 39.9275C33.3717 39.6681 33.1246 39.5383 32.8717 39.462C32.3566 39.3067 31.8102 39.3067 31.2951 39.462C31.0423 39.5383 30.7951 39.6681 30.3009 39.9275C29.1482 40.5323 28.5718 40.8348 28.1872 40.8333C27.3866 40.8304 26.7084 40.2131 26.5924 39.3817C26.5367 38.9822 26.7405 38.3405 27.1481 37.0574L28.2165 33.6932" stroke="#AEB9E1" stroke-width="3"/>
</svg>
