<svg width="20" height="20" viewBox="0 0 20 20" fill="none" xmlns="http://www.w3.org/2000/svg">
<path d="M16.6666 12.5C16.6666 14.0532 16.6666 14.8297 16.4129 15.4423C16.0746 16.259 15.4256 16.9079 14.6089 17.2462C13.9963 17.5 13.2197 17.5 11.6666 17.5H9.16663C6.02395 17.5 4.45258 17.5 3.47628 16.5237C2.49996 15.5473 2.49998 13.976 2.5 10.8332L2.50005 5.83319C2.50007 3.99232 3.9924 2.5 5.83328 2.5" stroke="white" stroke-width="1.5" stroke-linecap="round" stroke-linejoin="round"/>
<path d="M8.332 7.08301L8.69341 10.3904C8.72791 10.6669 8.89783 10.9079 9.15383 11.0179C9.7255 11.2634 10.7962 11.6663 11.6653 11.6663C12.5346 11.6663 13.6052 11.2634 14.1769 11.0179C14.4329 10.9079 14.6028 10.6669 14.6373 10.3904L14.9987 7.08301M17.082 6.24967V9.39067M11.6653 3.33301L5.83203 5.83301L11.6653 8.33301L17.4987 5.83301L11.6653 3.33301Z" stroke="white" stroke-width="1.5" stroke-linecap="round" stroke-linejoin="round"/>
</svg>
