<svg width="20" height="20" viewBox="0 0 20 20" fill="none" xmlns="http://www.w3.org/2000/svg">
<path d="M9.16699 6.66699H10.8337C13.1907 6.66699 14.3692 6.66699 15.1014 7.39923C15.8337 8.13146 15.8337 9.30999 15.8337 11.667C15.8337 14.024 15.8337 15.2025 15.1014 15.9347C14.3692 16.667 13.1907 16.667 10.8337 16.667H10.0003C10.0003 16.667 9.58366 18.3337 6.66699 18.3337C6.66699 18.3337 7.50033 17.4931 7.50033 16.6526C6.20578 16.6136 5.43364 16.4692 4.89923 15.9347C4.16699 15.2025 4.16699 14.024 4.16699 11.667C4.16699 9.30999 4.16699 8.13146 4.89923 7.39923C5.63146 6.66699 6.80997 6.66699 9.16699 6.66699Z" stroke="#ABABAB" stroke-width="1.5" stroke-linejoin="round"/>
<path d="M15.833 9.58301H16.2497C17.0285 9.58301 17.4179 9.58301 17.708 9.75051C17.898 9.86017 18.0558 10.018 18.1655 10.208C18.333 10.4981 18.333 10.8875 18.333 11.6663C18.333 12.4452 18.333 12.8346 18.1655 13.1247C18.0558 13.3147 17.898 13.4725 17.708 13.5822C17.4179 13.7497 17.0285 13.7497 16.2497 13.7497H15.833" stroke="#ABABAB" stroke-width="1.5" stroke-linejoin="round"/>
<path d="M4.16699 9.58301H3.75033C2.97148 9.58301 2.58206 9.58301 2.29199 9.75051C2.10197 9.86017 1.94417 10.018 1.83446 10.208C1.66699 10.4981 1.66699 10.8875 1.66699 11.6663C1.66699 12.4452 1.66699 12.8346 1.83446 13.1247C1.94417 13.3147 2.10197 13.4725 2.29199 13.5822C2.58206 13.7497 2.97148 13.7497 3.75033 13.7497H4.16699" stroke="#ABABAB" stroke-width="1.5" stroke-linejoin="round"/>
<path d="M11.25 2.91699C11.25 3.60735 10.6903 4.16699 10 4.16699C9.30967 4.16699 8.75 3.60735 8.75 2.91699C8.75 2.22663 9.30967 1.66699 10 1.66699C10.6903 1.66699 11.25 2.22663 11.25 2.91699Z" stroke="#ABABAB" stroke-width="1.5"/>
<path d="M10 4.16699V6.66699" stroke="#ABABAB" stroke-width="1.5" stroke-linecap="round" stroke-linejoin="round"/>
<path d="M7.5 10V10.8333M12.5 10V10.8333" stroke="#ABABAB" stroke-width="1.5" stroke-linecap="round" stroke-linejoin="round"/>
<path d="M8.33301 13.75C8.33301 13.75 8.88859 14.1667 9.99967 14.1667C11.1108 14.1667 11.6663 13.75 11.6663 13.75" stroke="#ABABAB" stroke-width="1.5" stroke-linecap="round"/>
</svg>
