<svg width="18" height="19" viewBox="0 0 18 19" fill="none" xmlns="http://www.w3.org/2000/svg">
<path d="M10.5 16.25H12M10.5 16.25C9.8787 16.25 9.375 15.7463 9.375 15.125V13.25H9M10.5 16.25H7.5M9 13.25H8.625V15.125C8.625 15.7463 8.1213 16.25 7.5 16.25M9 13.25V16.25M7.5 16.25H6" stroke="#EF4C4C" stroke-width="1.125" stroke-linecap="round" stroke-linejoin="round"/>
<path d="M12 2.75H6C3.87868 2.75 2.81802 2.75 2.15901 3.40901C1.5 4.06802 1.5 5.12868 1.5 7.25V8.75C1.5 10.8713 1.5 11.9319 2.15901 12.591C2.81802 13.25 3.87868 13.25 6 13.25H12C14.1213 13.25 15.1819 13.25 15.841 12.591C16.5 11.9319 16.5 10.8713 16.5 8.75V7.25C16.5 5.12868 16.5 4.06802 15.841 3.40901C15.1819 2.75 14.1213 2.75 12 2.75Z" stroke="#EF4C4C" stroke-width="1.125" stroke-linecap="round" stroke-linejoin="round"/>
<path d="M7.125 6.125L9 8M9 8L10.875 9.875M9 8L10.875 6.125M9 8L7.125 9.875" stroke="#EF4C4C" stroke-width="1.125" stroke-linecap="round" stroke-linejoin="round"/>
</svg>
