<svg width="20" height="20" viewBox="0 0 20 20" fill="none" xmlns="http://www.w3.org/2000/svg">
<path d="M9.18359 5.65527V16.4886" stroke="white" stroke-width="1.5" stroke-linecap="round"/>
<path d="M9.16797 16.2503C8.98272 16.2503 8.60422 16.0486 7.84735 15.6452C7.07805 15.2352 6.01522 14.8272 4.65339 14.5711C3.12571 14.2837 2.36187 14.1402 2.01492 13.716C1.66797 13.2919 1.66797 12.6126 1.66797 11.254V5.91412C1.66797 4.42827 1.66797 3.68534 2.20855 3.22784C2.74914 2.77033 3.38389 2.8897 4.65339 3.12842C7.15929 3.59966 8.6528 4.58537 9.16797 5.15127C9.68314 4.58537 11.1766 3.59966 13.6826 3.12842C14.9521 2.8897 15.5868 2.77033 16.1274 3.22784C16.668 3.68534 16.668 4.42827 16.668 5.91412V8.33366" stroke="white" stroke-width="1.5" stroke-linecap="round" stroke-linejoin="round"/>
<path d="M17.3878 10.7831L17.9671 11.3601C18.4572 11.8481 18.4572 12.6396 17.9671 13.1277L14.9323 16.2074C14.6935 16.4451 14.3882 16.6055 14.0563 16.6672L12.1753 17.0739C11.8783 17.1381 11.6139 16.8755 11.6775 16.5795L12.0779 14.7168C12.1399 14.3862 12.3008 14.0821 12.5396 13.8443L15.613 10.7831C16.1032 10.295 16.8978 10.295 17.3878 10.7831Z" stroke="white" stroke-width="1.5" stroke-linecap="round" stroke-linejoin="round"/>
</svg>
