<svg width="20" height="20" viewBox="0 0 20 20" fill="none" xmlns="http://www.w3.org/2000/svg">
<path d="M2.08301 5.00016L6.66634 3.3335L11.2497 5.00016L9.16634 6.25016V7.50016C9.16634 7.50016 8.61076 7.0835 6.66634 7.0835C4.7219 7.0835 4.16634 7.50016 4.16634 7.50016V6.25016L2.08301 5.00016ZM2.08301 5.00016V8.3335" stroke="white" stroke-width="1.5" stroke-linecap="round" stroke-linejoin="round"/>
<path d="M9.16699 7.0835V7.82424C9.16699 9.25608 8.0477 10.4168 6.66699 10.4168C5.28628 10.4168 4.16699 9.25608 4.16699 7.82424V7.0835" stroke="white" stroke-width="1.5" stroke-linecap="round" stroke-linejoin="round"/>
<path d="M12.7652 9.19117C12.7652 9.19117 13.1692 8.89708 14.5833 8.89708C15.9975 8.89708 16.4015 9.19117 16.4015 9.19117M12.7652 9.19117V8.33333L11.25 7.5L14.5833 6.25L17.9167 7.5L16.4015 8.33333V9.19117M12.7652 9.19117V9.43183C12.7652 10.436 13.5792 11.25 14.5833 11.25C15.5875 11.25 16.4015 10.436 16.4015 9.43183V9.19117" stroke="white" stroke-width="1.5" stroke-linecap="round" stroke-linejoin="round"/>
<path d="M3.65453 13.2717C2.86855 13.7104 0.807749 14.6064 2.06292 15.7274C2.67605 16.275 3.35893 16.6667 4.21747 16.6667H9.11649C9.97507 16.6667 10.6579 16.275 11.2711 15.7274C12.5262 14.6064 10.4654 13.7104 9.67941 13.2717C7.83633 12.2428 5.49765 12.2428 3.65453 13.2717Z" stroke="white" stroke-width="1.5" stroke-linecap="round" stroke-linejoin="round"/>
<path d="M13.333 16.6668H16.4203C17.0643 16.6668 17.5764 16.3535 18.0363 15.9154C18.9777 15.0186 17.4321 14.3018 16.8426 13.9508C15.7798 13.318 14.4973 13.1717 13.333 13.5119" stroke="white" stroke-width="1.5" stroke-linecap="round" stroke-linejoin="round"/>
</svg>
