<svg width="38" height="38" viewBox="0 0 38 38" fill="none" xmlns="http://www.w3.org/2000/svg">
<rect x="0.5" y="0.5" width="37" height="37" rx="18.5" stroke="#545A64"/>
<path d="M13.5556 24.4444H14.6639L22.2667 16.8417L21.1583 15.7333L13.5556 23.3361V24.4444ZM12 26V22.6944L22.2667 12.4472C22.4222 12.3046 22.594 12.1944 22.7819 12.1167C22.9699 12.0389 23.1676 12 23.375 12C23.5824 12 23.7833 12.0389 23.9778 12.1167C24.1722 12.1944 24.3407 12.3111 24.4833 12.4667L25.5528 13.5556C25.7083 13.6981 25.8218 13.8667 25.8931 14.0611C25.9644 14.2556 26 14.45 26 14.6444C26 14.8519 25.9644 15.0495 25.8931 15.2375C25.8218 15.4255 25.7083 15.5972 25.5528 15.7528L15.3056 26H12ZM21.7028 16.2972L21.1583 15.7333L22.2667 16.8417L21.7028 16.2972Z" fill="#DEE0E3"/>
</svg>
