<svg width="49" height="48" viewBox="0 0 49 48" fill="none" xmlns="http://www.w3.org/2000/svg">
<path d="M43.963 2.23204C43.7806 2.03332 43.5243 1.92004 43.2545 1.92004H5.7454C5.47564 1.92004 5.21932 2.03332 5.03692 2.23204C4.85452 2.43076 4.76524 2.69764 4.78924 2.96548L8.16844 40.8154C8.20396 41.2109 8.47948 41.544 8.86156 41.6535L24.2312 46.0436C24.3166 46.0676 24.4059 46.08 24.4942 46.08C24.5825 46.08 24.6718 46.0676 24.7572 46.0436L40.1403 41.6535C40.5224 41.544 40.7979 41.2109 40.8334 40.8154L44.2107 2.96548C44.2347 2.69764 44.1444 2.43076 43.963 2.23204ZM12.02 27.8439L18.74 29.7082V10.56H22.58V35.52L12.02 32.5911V27.8439ZM37.0318 21.12L36.02 32.88L26.42 35.52V31.1031L32.9 29.3223L33.14 25.7223L26.42 26.88V10.56H37.94L37.6088 14.4H30.26V22.08L37.0318 21.12Z" fill="#B6B6B6"/>
</svg>
