<svg width="44" height="45" viewBox="0 0 44 45" fill="none" xmlns="http://www.w3.org/2000/svg">
<path d="M37.5832 26.1666V18.8333C37.5832 11.9194 37.5832 8.4624 35.4355 6.3145C33.2875 4.16663 29.8306 4.16663 22.9166 4.16663H21.0834C14.1696 4.16663 10.7127 4.16663 8.56479 6.31449C6.4169 8.46235 6.41688 11.9193 6.41682 18.8332L6.41675 26.1664C6.41669 33.0805 6.41666 36.5374 8.56455 38.6854C10.7124 40.8333 14.1694 40.8333 21.0834 40.8333H22.9166C29.8306 40.8333 33.2875 40.8333 35.4355 38.6854C37.5832 36.5376 37.5832 33.0805 37.5832 26.1666Z" stroke="#AEB9E1" stroke-width="3" stroke-linecap="round" stroke-linejoin="round"/>
<path d="M14.6667 13.3334H29.3334M14.6667 22.5H29.3334M14.6667 31.6667H22.0001" stroke="#AEB9E1" stroke-width="3" stroke-linecap="round" stroke-linejoin="round"/>
</svg>
