<svg width="44" height="45" viewBox="0 0 44 45" fill="none" xmlns="http://www.w3.org/2000/svg">
<path d="M40.3333 26.1666V18.8333C40.3333 11.9194 40.3333 8.4624 38.1853 6.3145C36.0376 4.16663 32.5805 4.16663 25.6666 4.16663H21.9999C15.086 4.16663 11.629 4.16663 9.48113 6.3145C7.33325 8.4624 7.33325 11.9194 7.33325 18.8333V26.1666C7.33325 33.0805 7.33325 36.5376 9.48113 38.6854C11.629 40.8333 15.086 40.8333 21.9999 40.8333H25.6666C32.5805 40.8333 36.0376 40.8333 38.1853 38.6854C40.3333 36.5376 40.3333 33.0805 40.3333 26.1666Z" stroke="#AEB9E1" stroke-width="3"/>
<path d="M9.16675 11.5H3.66675M9.16675 22.5H3.66675M9.16675 33.5H3.66675" stroke="#AEB9E1" stroke-width="3" stroke-linecap="round" stroke-linejoin="round"/>
<path d="M32.0833 13.3334H24.75M28.4167 20.6667H24.75" stroke="#AEB9E1" stroke-width="3" stroke-linecap="round" stroke-linejoin="round"/>
<path d="M16.5 40.8333V4.16663" stroke="#AEB9E1" stroke-width="3" stroke-linecap="round" stroke-linejoin="round"/>
</svg>
