<svg width="44" height="45" viewBox="0 0 44 45" fill="none" xmlns="http://www.w3.org/2000/svg">
<path d="M30.1124 8.94266L31.9274 7.12768C33.4311 5.62411 35.8689 5.62411 37.3724 7.12768C38.8759 8.63127 38.8759 11.069 37.3724 12.5726L35.5574 14.3876M30.1124 8.94266L17.9036 21.1514C16.9732 22.082 16.3132 23.2476 15.994 24.5242L14.6667 29.8333L19.9759 28.506C21.2524 28.187 22.4181 27.5268 23.3487 26.5964L35.5574 14.3876M30.1124 8.94266L35.5574 14.3876" stroke="#AEB9E1" stroke-width="3" stroke-linejoin="round"/>
<path d="M34.8332 25.25C34.8332 31.277 34.8331 34.2905 33.1687 36.3189C32.864 36.6901 32.5235 37.0306 32.1521 37.3353C30.1239 39 27.1102 39 21.0831 39H20.1667C13.2527 39 9.79579 39 7.64791 36.852C5.50005 34.7043 5.5 31.2472 5.5 24.3333V23.4166C5.5 17.3896 5.5 14.3761 7.16456 12.3478C7.46931 11.9764 7.80982 11.6359 8.18114 11.3312C10.2094 9.66663 13.223 9.66663 19.25 9.66663" stroke="#AEB9E1" stroke-width="3" stroke-linecap="round" stroke-linejoin="round"/>
</svg>
