<svg width="20" height="20" viewBox="0 0 20 20" fill="none" xmlns="http://www.w3.org/2000/svg">
<path d="M7.61063 2.08301C5.38874 2.13363 4.09095 2.34514 3.20423 3.22878C2.42817 4.00215 2.16875 5.08931 2.08203 6.83301M12.3868 2.08301C14.6087 2.13363 15.9064 2.34514 16.7932 3.22878C17.5693 4.00215 17.8287 5.08931 17.9153 6.83301M12.3868 17.9163C14.6087 17.8657 15.9064 17.6542 16.7932 16.7706C17.5693 15.9972 17.8287 14.91 17.9153 13.1663M7.61063 17.9163C5.38874 17.8657 4.09095 17.6542 3.20423 16.7706C2.42817 15.9972 2.16875 14.91 2.08203 13.1663" stroke="white" stroke-width="1.25" stroke-linecap="round" stroke-linejoin="round"/>
<path d="M6.25 14.1663C8.19308 12.1312 11.7861 12.0353 13.75 14.1663M12.0792 7.91634C12.0792 9.06692 11.1451 9.99967 9.99298 9.99967C8.84073 9.99967 7.90664 9.06692 7.90664 7.91634C7.90664 6.76575 8.84073 5.83301 9.99298 5.83301C11.1451 5.83301 12.0792 6.76575 12.0792 7.91634Z" stroke="white" stroke-width="1.25" stroke-linecap="round"/>
</svg>
