<svg width="20" height="20" viewBox="0 0 20 20" fill="none" xmlns="http://www.w3.org/2000/svg">
<path d="M13.333 11.6665C13.333 12.3568 13.8927 12.9165 14.583 12.9165C15.2733 12.9165 15.833 12.3568 15.833 11.6665C15.833 10.9762 15.2733 10.4165 14.583 10.4165C13.8927 10.4165 13.333 10.9762 13.333 11.6665Z" stroke="white" stroke-width="1.5"/>
<path d="M15.75 6.6665C15.8047 6.39725 15.8333 6.11856 15.8333 5.83317C15.8333 3.53199 13.9678 1.6665 11.6667 1.6665C9.3655 1.6665 7.5 3.53199 7.5 5.83317C7.5 6.11856 7.52869 6.39725 7.58335 6.6665" stroke="white" stroke-width="1.5"/>
<path d="M5.83366 6.6612H13.3337C15.6907 6.6612 16.8692 6.6612 17.6014 7.39378C18.3337 8.12637 18.3337 9.30541 18.3337 11.6636V13.3311C18.3337 15.6892 18.3337 16.8683 17.6014 17.6009C16.8692 18.3335 15.6907 18.3335 13.3337 18.3335H8.33366C5.19096 18.3335 3.61962 18.3335 2.6433 17.3567C1.66699 16.3799 1.66699 14.8078 1.66699 11.6636V9.99616C1.66699 6.85192 1.66699 5.27981 2.6433 4.30303C3.42921 3.51675 4.60068 3.3634 6.66699 3.3335H8.33366" stroke="white" stroke-width="1.5" stroke-linecap="round"/>
</svg>
