<svg width="44" height="45" viewBox="0 0 44 45" fill="none" xmlns="http://www.w3.org/2000/svg">
<path d="M21.0833 40.8334C13.7373 40.8334 10.0642 40.8334 7.78213 38.1485C5.5 35.4638 5.5 31.1424 5.5 22.5001C5.5 13.8577 5.5 9.53645 7.78213 6.85161C10.0642 4.16675 13.7373 4.16675 21.0833 4.16675C28.4293 4.16675 32.1024 4.16675 34.3845 6.85161C36.2215 9.01283 36.58 12.2344 36.6498 17.9167" stroke="#AEB9E1" stroke-width="3" stroke-linecap="round" stroke-linejoin="round"/>
<path d="M14.6665 15.1667H27.4998M14.6665 24.3334H20.1665" stroke="#AEB9E1" stroke-width="3" stroke-linecap="round" stroke-linejoin="round"/>
<path d="M35.95 33.6932C37.4954 32.5683 38.4998 30.7452 38.4998 28.6875C38.4998 25.2702 35.7297 22.5 32.3123 22.5H31.854C28.4367 22.5 25.6665 25.2702 25.6665 28.6875C25.6665 30.7452 26.671 32.5683 28.2163 33.6932M35.95 33.6932C34.9291 34.4365 33.6719 34.875 32.3123 34.875H31.854C30.4944 34.875 29.2373 34.4365 28.2163 33.6932M35.95 33.6932L37.0185 37.0574C37.4261 38.3405 37.6299 38.9822 37.5742 39.3817C37.4581 40.2131 36.78 40.8304 35.9794 40.8333C35.5947 40.8348 35.0183 40.5323 33.8657 39.9275C33.3715 39.6681 33.1243 39.5383 32.8715 39.462C32.3563 39.3067 31.81 39.3067 31.2948 39.462C31.042 39.5383 30.7949 39.6681 30.3006 39.9275C29.148 40.5323 28.5716 40.8348 28.187 40.8333C27.3864 40.8304 26.7082 40.2131 26.5922 39.3817C26.5364 38.9822 26.7403 38.3405 27.1478 37.0574L28.2163 33.6932" stroke="#AEB9E1" stroke-width="3"/>
</svg>
