<svg width="20" height="20" viewBox="0 0 20 20" fill="none" xmlns="http://www.w3.org/2000/svg">
<path d="M9.16699 6.66602H10.8337C13.1907 6.66602 14.3692 6.66602 15.1014 7.39825C15.8337 8.13048 15.8337 9.30902 15.8337 11.666C15.8337 14.023 15.8337 15.2015 15.1014 15.9338C14.3692 16.666 13.1907 16.666 10.8337 16.666H10.0003C10.0003 16.666 9.58366 18.3327 6.66699 18.3327C6.66699 18.3327 7.50033 17.4921 7.50033 16.6516C6.20578 16.6126 5.43364 16.4682 4.89923 15.9338C4.16699 15.2015 4.16699 14.023 4.16699 11.666C4.16699 9.30902 4.16699 8.13048 4.89923 7.39825C5.63146 6.66602 6.80997 6.66602 9.16699 6.66602Z" stroke="#ABABAB" stroke-width="1.5" stroke-linejoin="round"/>
<path d="M15.833 9.58398H16.2497C17.0285 9.58398 17.4179 9.58398 17.708 9.75148C17.898 9.86115 18.0558 10.019 18.1655 10.209C18.333 10.4991 18.333 10.8885 18.333 11.6673C18.333 12.4462 18.333 12.8356 18.1655 13.1257C18.0558 13.3157 17.898 13.4735 17.708 13.5832C17.4179 13.7507 17.0285 13.7507 16.2497 13.7507H15.833" stroke="#ABABAB" stroke-width="1.5" stroke-linejoin="round"/>
<path d="M4.16699 9.58398H3.75033C2.97148 9.58398 2.58206 9.58398 2.29199 9.75148C2.10197 9.86115 1.94417 10.019 1.83446 10.209C1.66699 10.4991 1.66699 10.8885 1.66699 11.6673C1.66699 12.4462 1.66699 12.8356 1.83446 13.1257C1.94417 13.3157 2.10197 13.4735 2.29199 13.5832C2.58206 13.7507 2.97148 13.7507 3.75033 13.7507H4.16699" stroke="#ABABAB" stroke-width="1.5" stroke-linejoin="round"/>
<path d="M11.25 2.91602C11.25 3.60637 10.6903 4.16602 10 4.16602C9.30967 4.16602 8.75 3.60637 8.75 2.91602C8.75 2.22566 9.30967 1.66602 10 1.66602C10.6903 1.66602 11.25 2.22566 11.25 2.91602Z" stroke="#ABABAB" stroke-width="1.5"/>
<path d="M10 4.16602V6.66602" stroke="#ABABAB" stroke-width="1.5" stroke-linecap="round" stroke-linejoin="round"/>
<path d="M7.5 10V10.8333M12.5 10V10.8333" stroke="#ABABAB" stroke-width="1.5" stroke-linecap="round" stroke-linejoin="round"/>
<path d="M8.33301 13.75C8.33301 13.75 8.88859 14.1667 9.99967 14.1667C11.1108 14.1667 11.6663 13.75 11.6663 13.75" stroke="#ABABAB" stroke-width="1.5" stroke-linecap="round"/>
</svg>
